<?xml version="1.0" encoding="utf-8"?>
<!-- Generator: Adobe Illustrator 23.1.0, SVG Export Plug-In . SVG Version: 6.00 Build 0)  -->
<svg version="1.1" xmlns="http://www.w3.org/2000/svg" xmlns:xlink="http://www.w3.org/1999/xlink" x="0px" y="0px"
	 viewBox="0 0 800 800" style="enable-background:new 0 0 800 800;" xml:space="preserve">
<style type="text/css">
	.st0{fill:#5B97D1;}
	.st1{fill:#263238;}
	.st2{fill:#EF4538;}
	.st3{fill:#E5A673;}
	.st4{fill:#FFFFFF;}
	.st5{fill:#ECB989;}
	.st6{fill:#4A312C;}
	.st7{fill:#604A37;}
	.st8{fill:#614A3A;}
	.st9{fill:#C49A74;}
	.st10{fill:#473728;}
	.st11{fill:#F0536F;}
	.st12{display:none;}
</style>
<g id="Ebene_2">
	<polygon id="SchulterRechts" class="st1" points="679.77,622.23 503.47,542.83 402.2,647.13 402.2,800 705.34,800 695.58,661.6 	
		"/>
	<polygon id="SchulterLinks" class="st1" points="124.63,622.23 300.93,542.83 402.2,647.13 402.2,800 99.06,800 108.81,661.6 	"/>
	<polygon class="st2" points="402.59,627.32 359.89,660.07 384.43,684.44 373.57,800 402.59,800 	"/>
	<polygon class="st2" points="402.59,627.32 445.28,660.07 420.74,684.44 431.6,800 402.59,800 	"/>
	<path class="st3" d="M402.59,627.32l101.49-78.02v-60.55H402.59C402.59,488.76,402.59,626.58,402.59,627.32z"/>
	<path class="st3" d="M402.59,627.32L301.09,549.3v-60.55h101.49C402.59,488.76,402.59,626.58,402.59,627.32z"/>
	<polygon id="KragenRechts" class="st4" points="521.99,527.69 557.78,563.97 472.94,685.98 402.59,627.32 	"/>
	<polygon id="KragenLinks_1_" class="st4" points="283.18,527.69 247.39,563.97 332.23,685.98 402.59,627.32 	"/>
	<path class="st5" d="M238.91,308.9c0,0-24.48,4.47-20.31,34.56c4.17,30.09,12.06,48.85,33.51,61.81L238.91,308.9z"/>
	<path class="st5" d="M564.61,308.9c0,0,24.48,4.47,20.31,34.56c-4.17,30.09-12.06,48.85-33.51,61.81L564.61,308.9z"/>
	<ellipse class="st5" cx="401.69" cy="325.17" rx="162.92" ry="232.87"/>
	<path class="st6" d="M240.56,359.83c0,0-2.08-26.66-20.22-46.6c-18.14-19.94-8.97-92.9-8.97-92.9s13.76-90.51,43.06-132.77
		c0,0-1.2,42.46,3.99,55.02c0,0,24.72-58.81,69.58-85.32c0,0-16.75,25.12-18.74,54.03c0,0,39.87-64.99,126.39-65.19
		c0,0-21.53,17.94-30.5,45.25c0,0,87.88-37.48,159.47,5.38c0,0-36.27,7.58-52.61,26.71c0,0,65.59-5.58,94.89,30.3
		c0,0-37.68,9.57-29.9,42.26c0.44,1.87,1.58,3.78,2.24,5.59c1.9,5.21,3.46,10.56,4.77,15.95c4.49,18.46,6.05,37.65,4.84,56.6
		c-0.92,14.44-4.18,28.5-8.84,42.18c-2.3,6.77-6.14,12.93-8.93,19.53c-3.47,8.21-6.22,16.72-8.39,25.35
		c0.01-1.53-0.08-3.06-0.18-4.59c-0.6-9.09-2.84-17.61-5.97-26.1c-2.03-5.5-4.63-10.52-6.02-16.3c-1.33-5.53-2.02-11.22-2.03-16.91
		c-0.01-6.3,0.79-12.56,1.33-18.83c0.43-4.97,0.16-10.42-0.3-15.43c-0.99-10.66-4.38-21.1-9.86-30.3
		c-2.33-3.91-4.82-7.25-8.27-10.18c-2.5-2.12-5.13-4.08-7.84-5.92c-7.12-4.83-14.81-8.81-22.69-12.25c-6.97-3.05-14.11-5.67-21.35-8
		c0,0-59.01-23.32-141.54-1.79c-17.75,4.63-35.75,11.1-50.62,22.11c-8.24,6.11-15.61,13.88-19.65,23.44
		c-3.74,8.86-5.4,18.07-4.53,27.7c0.69,7.62,2.27,15.17,2.28,22.82c0.05,19.54-9.78,38.16-18.74,54.95
		C244.29,350.13,242.02,354.9,240.56,359.83z"/>
	<circle class="st7" cx="331.84" cy="321.48" r="19.8"/>
	<path class="st8" d="M440.02,335.54c0,0,33.54-29.7,71.86-4.15c0,0-8.3-24.59-37.37-23.95
		C445.45,308.07,440.02,335.54,440.02,335.54z"/>
	<path class="st9" d="M363.76,383.28h77.43c0,0,1.82,24.31-38.72,24.31S363.76,383.28,363.76,383.28z"/>
	<path class="st10" d="M402.59,438.63h53.85c0,0,15.11-2.25,4.7,19.61c-10.42,21.85-22.12,41.67-58.55,42.08V438.63z"/>
	<path class="st10" d="M402.59,438.63h-53.85c0,0-15.11-2.25-4.7,19.61c10.42,21.85,22.12,41.67,58.55,42.08V438.63z"/>
	<path class="st4" d="M402.59,438.63h43.64c0,0,0.61,13.07-17.77,13.28h-25.87V438.63z"/>
	<path class="st4" d="M403.2,438.63h-43.64c0,0-0.61,13.07,17.77,13.28h25.87V438.63z"/>
	<path class="st11" d="M402.59,500.31l-0.11-14.71c0,0,15.94-21.24,40.98,0C443.45,485.61,431.25,500.52,402.59,500.31z"/>
	<path class="st11" d="M402.47,500.31l0.11-14.71c0,0-15.94-21.24-40.98,0C361.61,485.61,373.81,500.52,402.47,500.31z"/>
</g>
</svg>
