<svg id="1df42c3d-a5f0-40b6-92f4-1cd1ef400121" data-name="Ebene 1" xmlns="http://www.w3.org/2000/svg" viewBox="0 0 1920 1080"><title>Calendar</title><rect width="1920" height="1080" rx="12" ry="12"/><rect width="1920" height="127" rx="12" ry="12" style="fill:#1976d2"/><rect y="99" width="58" height="28" style="fill:#1976d2"/><rect x="1895" y="94" width="25" height="33" style="fill:#1976d2"/><line x1="45" y1="39" x2="106" y2="39" style="fill:none;stroke:#fff;stroke-miterlimit:10;stroke-width:8px"/><line x1="45" y1="63" x2="106" y2="63" style="fill:none;stroke:#fff;stroke-miterlimit:10;stroke-width:8px"/><line x1="45" y1="87" x2="106" y2="87" style="fill:none;stroke:#fff;stroke-miterlimit:10;stroke-width:8px"/><text transform="translate(135.129 90.115)" style="font-size:74px;fill:#fff;font-family:Roboto-Regular, Roboto">Jeff</text><rect x="58" y="183.51" width="1802.5" height="862.99" rx="12" ry="12" style="fill:#1e1e1e;stroke:#000;stroke-miterlimit:10"/><path d="M634.605,1034.5a12.035,12.035,0,0,1-12,12" style="fill:#1e1e1e;stroke:#000;stroke-miterlimit:10"/><path d="M69.105,747.493" style="fill:#1e1e1e;stroke:#000;stroke-miterlimit:10"/><path d="M69.105,1046.5a12.035,12.035,0,0,1-12-12" style="fill:#1e1e1e;stroke:#000;stroke-miterlimit:10"/><rect x="95" y="357" width="218" height="161" rx="12" ry="12" style="fill:#ef5350"/><text transform="translate(145 270)" style="font-size:33px;fill:#fff;font-family:Roboto-Regular, Roboto">Mond<tspan x="84.449" y="0" style="letter-spacing:-0.007309422348484848em">a</tspan><tspan x="102.158" y="0" style="letter-spacing:-0.00002959280303030303em">y</tspan></text><line x1="325" y1="230.075" x2="325" y2="1010.55" style="fill:none;stroke:#fff;stroke-miterlimit:10"/><line x1="601.5" y1="229" x2="601.5" y2="1009.475" style="fill:none;stroke:#fff;stroke-miterlimit:10"/><line x1="859.5" y1="229" x2="859.5" y2="1009.475" style="fill:none;stroke:#fff;stroke-miterlimit:10"/><line x1="1124.5" y1="229" x2="1124.5" y2="1009.475" style="fill:none;stroke:#fff;stroke-miterlimit:10"/><line x1="1387.5" y1="229" x2="1387.5" y2="1009.475" style="fill:none;stroke:#fff;stroke-miterlimit:10"/><line x1="1631.5" y1="236.525" x2="1631.5" y2="1017" style="fill:none;stroke:#fff;stroke-miterlimit:10"/><line x1="95" y1="285" x2="1833" y2="285" style="fill:none;stroke:#fff;stroke-miterlimit:10;stroke-width:2px"/><text transform="translate(402 270)" style="font-size:33px;fill:#fff;font-family:Roboto-Regular, Roboto;letter-spacing:-0.04637192234848485em">T<tspan x="18.16" y="0" style="letter-spacing:-0.00002959280303030303em">uesd</tspan><tspan x="89.461" y="0" style="letter-spacing:-0.007309422348484848em">a</tspan><tspan x="107.17" y="0" style="letter-spacing:-0.00002959280303030303em">y</tspan></text><text transform="translate(660 270)" style="font-size:33px;fill:#fff;font-family:Roboto-Regular, Roboto">Thursd<tspan x="102.852" y="0" style="letter-spacing:-0.007339015151515152em">a</tspan><tspan x="120.56" y="0">y</tspan></text><text transform="translate(909 270)" style="font-size:33px;fill:#fff;font-family:Roboto-Regular, Roboto;letter-spacing:-0.015121922348484848em">W<tspan x="28.778" y="0" style="letter-spacing:0.00002959280303030303em">ednesd</tspan><tspan x="136.189" y="0" style="letter-spacing:-0.007309422348484848em">a</tspan><tspan x="153.898" y="0" style="letter-spacing:-0.00002959280303030303em">y</tspan></text><text transform="translate(1201 270)" style="font-size:33px;fill:#fff;font-family:Roboto-Regular, Roboto"><tspan style="letter-spacing:-0.0126953125em">F</tspan><tspan x="17.821" y="0" style="letter-spacing:0.00002959280303030303em">rid</tspan><tspan x="55.607" y="0" style="letter-spacing:-0.007339015151515152em">a</tspan><tspan x="73.315" y="0">y</tspan></text><text transform="translate(1448 270)" style="font-size:33px;fill:#fff;font-family:Roboto-Regular, Roboto">Satu<tspan x="66.5" y="0" style="letter-spacing:-0.009292140151515152em">r</tspan><tspan x="77.359" y="0">d</tspan><tspan x="95.971" y="0" style="letter-spacing:-0.007309422348484848em">a</tspan><tspan x="113.68" y="0" style="letter-spacing:-0.00002959280303030303em">y</tspan></text><text transform="translate(1683 270)" style="font-size:33px;fill:#fff;font-family:Roboto-Regular, Roboto">Sund<tspan x="74.588" y="0" style="letter-spacing:-0.007309422348484848em">a</tspan><tspan x="92.297" y="0" style="letter-spacing:-0.00002959280303030303em">y</tspan></text><text transform="translate(115 392)" style="font-size:31px;fill:#fff;font-family:Roboto-Regular, Roboto">Meeting</text><rect x="883" y="667" width="218" height="206" rx="12" ry="12" style="fill:#1565c0"/><text transform="translate(903 702)" style="font-size:31px;fill:#fff;font-family:Roboto-Regular, Roboto">Meeting</text><rect x="1147" y="344" width="218" height="257" rx="12" ry="12" style="fill:#4db6ac"/><text transform="translate(1167 379)" style="font-size:31px;fill:#fff;font-family:Roboto-Regular, Roboto">Meeting</text><rect x="352" y="848" width="218" height="161" rx="12" ry="12" style="fill:#ffb300"/><text transform="translate(372 885)" style="font-size:31px;fill:#fff;font-family:Roboto-Regular, Roboto"><tspan style="letter-spacing:-0.00537109375em">P</tspan><tspan x="19.39" y="0">a</tspan><tspan x="36.252" y="0" style="letter-spacing:0.0244140625em">r</tspan><tspan x="47.499" y="0">ty</tspan></text><rect x="1147" y="832" width="218" height="161" rx="12" ry="12" style="fill:#388e3c"/><text transform="translate(1167 869)" style="font-size:31px;fill:#fff;font-family:Roboto-Regular, Roboto"><tspan style="letter-spacing:-0.00537109375em">P</tspan><tspan x="19.39" y="0">a</tspan><tspan x="36.252" y="0" style="letter-spacing:0.0244140625em">r</tspan><tspan x="47.499" y="0">ty</tspan></text><rect x="621" y="319" width="218" height="161" rx="12" ry="12" style="fill:#388e3c"/><text transform="translate(641 356)" style="font-size:31px;fill:#fff;font-family:Roboto-Regular, Roboto">Bi<tspan x="26.822" y="0" style="letter-spacing:0.0244140625em">r</tspan><tspan x="38.069" y="0">thd</tspan><tspan x="82.752" y="0" style="letter-spacing:-0.00732421875em">a</tspan><tspan x="99.388" y="0">y</tspan></text><rect x="1405" y="314" width="428" height="46" rx="12" ry="12" style="fill:#ffb300"/><text transform="translate(1425 348)" style="font-size:31px;fill:#fff;font-family:Roboto-Regular, Roboto">Holid<tspan x="72.308" y="0" style="letter-spacing:-0.00732421875em">a</tspan><tspan x="88.943" y="0">y</tspan></text><rect x="95" y="667" width="218" height="161" rx="12" ry="12" style="fill:#ef5350"/><text transform="translate(115 702)" style="font-size:31px;fill:#fff;font-family:Roboto-Regular, Roboto">Meeting</text><rect x="352" y="337" width="218" height="330" rx="12" ry="12" style="fill:#1565c0"/><text transform="translate(372 372)" style="font-size:31px;fill:#fff;font-family:Roboto-Regular, Roboto">Con<tspan x="54.961" y="0" style="letter-spacing:-0.01171875em">f</tspan><tspan x="65.36" y="0">e</tspan><tspan x="81.784" y="0" style="letter-spacing:-0.00927734375em">r</tspan><tspan x="91.986" y="0">ence</tspan></text></svg>