<svg id="5799e07f-e459-4332-b34a-a2cca3e707ea" data-name="Ebene 1" xmlns="http://www.w3.org/2000/svg" viewBox="0 0 1920 1080"><title>Dashboard</title><rect width="1920" height="1080" rx="12" ry="12"/><rect width="1920" height="127" rx="12" ry="12" style="fill:#1976d2"/><rect y="99" width="58" height="28" style="fill:#1976d2"/><rect x="1895" y="94" width="25" height="33" style="fill:#1976d2"/><line x1="45" y1="39" x2="106" y2="39" style="fill:none;stroke:#fff;stroke-miterlimit:10;stroke-width:8px"/><line x1="45" y1="63" x2="106" y2="63" style="fill:none;stroke:#fff;stroke-miterlimit:10;stroke-width:8px"/><line x1="45" y1="87" x2="106" y2="87" style="fill:none;stroke:#fff;stroke-miterlimit:10;stroke-width:8px"/><text transform="translate(135.129 90.115)" style="font-size:74px;fill:#fff;font-family:Roboto-Regular, Roboto">Roomie</text><rect x="58" y="183" width="550.5" height="315" rx="12" ry="12" style="fill:#1e1e1e;stroke:#000;stroke-miterlimit:10"/><rect x="693.709" y="183.5" width="550.5" height="315" rx="12" ry="12" style="fill:#1e1e1e;stroke:#000;stroke-miterlimit:10"/><rect x="1325.709" y="183.5" width="550.5" height="315" rx="12" ry="12" style="fill:#1e1e1e;stroke:#000;stroke-miterlimit:10"/><rect x="51" y="621" width="550.5" height="315" rx="12" ry="12" style="fill:#1e1e1e;stroke:#000;stroke-miterlimit:10"/><rect x="686.709" y="621.5" width="550.5" height="315" rx="12" ry="12" style="fill:#1e1e1e;stroke:#000;stroke-miterlimit:10"/><rect x="1318.709" y="621.5" width="550.5" height="315" rx="12" ry="12" style="fill:#1e1e1e;stroke:#000;stroke-miterlimit:10"/><path d="M1486.781,377.84h24.913V352.927h-24.913Zm0,49.827h24.913V402.753h-24.913Zm0-99.653h24.913V303.1h-24.913Zm49.827,49.826H1711V352.927H1536.608Zm0,49.827H1711V402.753H1536.608Zm0-124.566v24.913H1711V303.1Z" style="fill:#fcfcfc"/><path d="M906,738.577,872.219,710.23l-9.474,11.236,33.782,28.347ZM802.306,721.466l-9.4-11.236L759.125,738.5l9.473,11.236Zm33.928,33.855H825.219v44.062l34.883,20.93,5.507-9.033-29.375-17.4Zm-3.671-29.375a66.094,66.094,0,1,0,66.093,66.093A66.1,66.1,0,0,0,832.563,725.946Zm0,117.5a51.407,51.407,0,1,1,51.406-51.407A51.369,51.369,0,0,1,832.563,843.446Z" style="fill:#fff"/><path d="M191.015,827.975a48.584,48.584,0,0,1-43.186-26.241h43.186l7.5-15H142.881a47.144,47.144,0,0,1,0-15h48.134l7.5-15H147.829a48.639,48.639,0,0,1,74.9-14.47L236,729.007a67.379,67.379,0,0,0-108.564,27.741H101.044l-7.5,15h30.44a62.683,62.683,0,0,0,0,15H101.044l-7.5,15h33.889A67.378,67.378,0,0,0,236,829.474L222.654,816.2A48.026,48.026,0,0,1,191.015,827.975Z" style="fill:#fff"/><path d="M146.127,275.336l-13.619-13.544L121.84,272.461,135.384,286ZM125.245,318.16h-22.7v15.132h22.7Zm68.094-75.283H178.207V265.2h15.132Zm56.368,29.584-10.669-10.669L225.5,275.336,236.163,286ZM225.42,376.115l13.543,13.619,10.668-10.668-13.619-13.543ZM246.3,318.16v15.132H269V318.16Zm-60.529-37.831a45.4,45.4,0,1,0,45.4,45.4A45.433,45.433,0,0,0,185.773,280.329Zm-7.566,128.245h15.132v-22.32H178.207ZM121.84,378.991l10.668,10.668,13.544-13.619-10.668-10.668Z" style="fill:#f9e04b"/><path d="M1705.2,822.2a14.4,14.4,0,1,0,14.4,14.4A14.381,14.381,0,0,0,1705.2,822.2ZM1662,707v14.4h14.4l25.92,54.648-9.72,17.64a13.921,13.921,0,0,0-1.8,6.912,14.442,14.442,0,0,0,14.4,14.4h86.4V800.6h-83.376a1.783,1.783,0,0,1-1.8-1.8l.216-.864,6.48-11.736h53.64a14.332,14.332,0,0,0,12.6-7.416l25.776-46.728A7.034,7.034,0,0,0,1806,728.6a7.221,7.221,0,0,0-7.2-7.2H1692.312l-6.768-14.4Zm115.2,115.2a14.4,14.4,0,1,0,14.4,14.4A14.381,14.381,0,0,0,1777.2,822.2Z" style="fill:#fff"/><text transform="translate(741 333)" style="font-size:106px;fill:#fff;font-family:Roboto-Regular, Roboto">09:23:47</text><text transform="translate(749 396)" style="font-size:55px;fill:#fff;font-family:Roboto-Regular, Roboto">09/12/2020</text><text transform="translate(345 397)" style="font-size:91px;fill:#fff;font-family:Roboto-Regular, Roboto">17°C</text><text transform="translate(281 811)" style="font-size:79px;fill:#fff;font-family:Roboto-Regular, Roboto">245,30€</text><text transform="translate(946 726)" style="font-size:33px;fill:#fff;font-family:Roboto-Regular, Roboto">Next<tspan x="68.143" y="0" style="letter-spacing:-0.01953125em"> </tspan><tspan x="75.668" y="0" style="letter-spacing:-0.05519057765151515em">T</tspan><tspan x="93.537" y="0" style="letter-spacing:0.00002959280303030303em">ask:</tspan></text><text transform="translate(946 783)" style="font-size:52px;fill:#fff;font-family:Roboto-Regular, Roboto"><tspan style="letter-spacing:-0.0224609375em">V</tspan><tspan x="31.916" y="0">acuum</tspan><tspan x="0" y="62.4">cleaning</tspan></text><text transform="translate(1369 788)" style="font-size:48px;fill:#fff;font-family:Roboto-Regular, Roboto">Go Shopping</text><text transform="translate(1361 262)" style="font-size:48px;fill:#fff;font-family:Roboto-Regular, Roboto"><tspan style="letter-spacing:-0.04833984375em">T</tspan><tspan x="26.32" y="0">odo:</tspan></text></svg>