<svg id="5420abae-ab36-4d33-8df2-e5e5392be4f3" data-name="Ebene 1" xmlns="http://www.w3.org/2000/svg" viewBox="0 0 1920 1080"><title>Finances</title><rect width="1920" height="1080" rx="12" ry="12"/><rect width="1920" height="127" rx="12" ry="12" style="fill:#1976d2"/><rect y="99" width="58" height="28" style="fill:#1976d2"/><rect x="1895" y="94" width="25" height="33" style="fill:#1976d2"/><line x1="45" y1="39" x2="106" y2="39" style="fill:none;stroke:#fff;stroke-miterlimit:10;stroke-width:8px"/><line x1="45" y1="63" x2="106" y2="63" style="fill:none;stroke:#fff;stroke-miterlimit:10;stroke-width:8px"/><line x1="45" y1="87" x2="106" y2="87" style="fill:none;stroke:#fff;stroke-miterlimit:10;stroke-width:8px"/><text transform="translate(135.129 90.115)" style="font-size:74px;fill:#fff;font-family:Roboto-Regular, Roboto">Roomie</text><rect x="58" y="183" width="650.5" height="413.5" rx="12" ry="12" style="fill:#1e1e1e;stroke:#000;stroke-miterlimit:10"/><rect x="762.5" y="182.5" width="1082" height="414" rx="12" ry="12" style="fill:#1e1e1e;stroke:#000;stroke-miterlimit:10"/><rect x="58" y="645.479" width="650.5" height="396.021" rx="12" ry="12" style="fill:#1e1e1e;stroke:#000;stroke-miterlimit:10"/><rect x="762.5" y="645" width="1082" height="396.5" rx="12" ry="12" style="fill:#1e1e1e;stroke:#000;stroke-miterlimit:10"/><text transform="translate(198 900)" style="font-size:98px;fill:#fff;font-family:Roboto-Regular, Roboto">$882.53</text><text transform="translate(319 792)" style="font-size:49px;fill:#fff;font-family:Roboto-Regular, Roboto"><tspan style="letter-spacing:-0.04833984375em">T</tspan><tspan x="26.869" y="0">otal</tspan></text><text transform="translate(106 257)" style="font-size:57px;fill:#fff;font-family:Roboto-Light, Roboto">Member Expenses</text><text transform="translate(205.36 310.216)" style="font-size:37.06987762451172px;fill:#fff;font-family:Roboto-Regular, Roboto">Monica <tspan x="131.7" y="0" style="letter-spacing:-0.2002921283611278em">	</tspan><tspan x="133.452" y="0" xml:space="preserve" style="letter-spacing:0.6524576013573657em">			</tspan><tspan x="233.541" y="0">$234.50</tspan></text><circle cx="156.705" cy="296.779" r="21.779" style="fill:#1976d2"/><text transform="translate(145.584 308.68)" style="font-size:37.06987762451172px;fill:#fff;font-family:Roboto-Regular, Roboto">S</text><circle cx="156.705" cy="347.75" r="21.779" style="fill:#1976d2"/><text transform="translate(205.36 360.261)" style="font-size:37.06987762451172px;fill:#fff;font-family:Roboto-Regular, Roboto">Ross<tspan x="82.195" y="0" style="letter-spacing:0.23515818542885797em">	</tspan><tspan x="100.089" y="0"> </tspan><tspan x="109.266" y="0" style="letter-spacing:0.40489147268793285em">	</tspan><tspan x="133.452" y="0" xml:space="preserve" style="letter-spacing:0.6524444294430977em">			</tspan><tspan x="233.541" y="0">$134.38</tspan></text><text transform="translate(145.658 360.797)" style="font-size:37.06987762451172px;fill:#fff;font-family:Roboto-Regular, Roboto">R</text><circle cx="156.705" cy="399.647" r="21.779" style="fill:#1976d2"/><text transform="translate(205.36 413.085)" style="font-size:37.06987762451172px;fill:#fff;font-family:Roboto-Regular, Roboto">Chandler<tspan x="147.248" y="0" style="letter-spacing:0.2802851637114585em">	</tspan><tspan x="166.815" y="0" xml:space="preserve" style="letter-spacing:0.6524444294430977em">		</tspan><tspan x="233.541" y="0">$211.86</tspan></text><text transform="translate(144.658 411.695)" style="font-size:37.06987762451172px;fill:#fff;font-family:Roboto-Regular, Roboto">C</text><circle cx="156.632" cy="454.252" r="21.779" style="fill:#1976d2"/><text transform="translate(204.287 467.69)" style="font-size:37.06987762451172px;fill:#fff;font-family:Roboto-Regular, Roboto">Phoebe<tspan x="125.021" y="0" style="letter-spacing:-0.020113513087428786em">	</tspan><tspan x="133.452" y="0" xml:space="preserve" style="letter-spacing:0.6524444294430977em">			</tspan><tspan x="233.541" y="0">$76.24</tspan></text><text transform="translate(145.584 467.3)" style="font-size:37.06987762451172px;fill:#fff;font-family:Roboto-Regular, Roboto">P</text><circle cx="156.779" cy="506.516" r="21.779" style="fill:#1976d2"/><text transform="translate(204.433 519.954)" style="font-size:37.06987762451172px;fill:#fff;font-family:Roboto-Regular, Roboto">Joe<tspan x="61.234" y="0" style="letter-spacing:-0.09940843698154882em">	</tspan><tspan x="66.726" y="0" xml:space="preserve" style="letter-spacing:0.6524444294430977em">					</tspan><tspan x="233.541" y="0">$0.50</tspan></text><text transform="translate(145.731 519.564)" style="font-size:37.06987762451172px;fill:#fff;font-family:Roboto-Regular, Roboto">J</text><circle cx="156.779" cy="556.516" r="21.779" style="fill:#1976d2"/><text transform="translate(205.433 569.954)" style="font-size:37.06987762451172px;fill:#fff;font-family:Roboto-Regular, Roboto">Rachel<tspan x="111.445" y="0" style="letter-spacing:0.3461052193092854em">	</tspan><tspan x="133.452" y="0" xml:space="preserve" style="letter-spacing:0.6524444294430977em">			</tspan><tspan x="233.541" y="0">$237.13</tspan></text><text transform="translate(145.731 569.564)" style="font-size:37.06987762451172px;fill:#fff;font-family:Roboto-Regular, Roboto">R</text><text transform="translate(807 255)" style="font-size:57px;fill:#fff;font-family:Roboto-Light, Roboto">Expenses</text><text transform="translate(835 319)" style="font-size:27px;fill:#fff;font-family:Roboto-Regular, Roboto">Drinks<tspan x="75.898" y="0" style="letter-spacing:0.94140625em">	</tspan><tspan x="108" y="0" xml:space="preserve" style="letter-spacing:1.0857747395833333em">				</tspan><tspan x="252" y="0">Monica</tspan><tspan x="341.239" y="0" style="letter-spacing:0.447265625em">	</tspan><tspan x="360" y="0" xml:space="preserve" style="letter-spacing:1.0857928240740742em">				</tspan><tspan x="504" y="0" style="letter-spacing:-0.00003616898148148148em">2 hours ago</tspan><tspan x="645.975" y="0" style="letter-spacing:-0.17252604166666666em">	</tspan><tspan x="648" y="0" xml:space="preserve" style="letter-spacing:1.0857928240740742em">			</tspan><tspan x="756" y="0">$23.45</tspan></text><text transform="translate(835 370)" style="font-size:27px;fill:#fff;font-family:Roboto-Regular, Roboto">Cof<tspan x="42.346" y="0" style="letter-spacing:-0.01171875em">f</tspan><tspan x="51.403" y="0">ee</tspan><tspan x="80.011" y="0" style="letter-spacing:0.7890625em">	</tspan><tspan x="108" y="0" xml:space="preserve" style="letter-spacing:1.0857747395833333em">				</tspan><tspan x="252" y="0">Phoebe</tspan><tspan x="343.061" y="0" style="letter-spacing:0.37991898148148145em">	</tspan><tspan x="360.002" y="0" xml:space="preserve" style="letter-spacing:1.0857928240740742em">				</tspan><tspan x="504.002" y="0" style="letter-spacing:-0.00003616898148148148em">2 d</tspan><tspan x="541.074" y="0" style="letter-spacing:-0.00734230324074074em">a</tspan><tspan x="555.563" y="0" style="letter-spacing:0.00003616898148148148em">ys ago</tspan><tspan x="634.176" y="0" style="letter-spacing:0.2644675925925926em">	</tspan><tspan x="648" y="0" xml:space="preserve" style="letter-spacing:1.0857928240740742em">			</tspan><tspan x="756" y="0" style="letter-spacing:-0.00003616898148148148em">$16.89</tspan></text><line x1="835" y1="336" x2="1672" y2="336" style="fill:none;stroke:#ccc;stroke-miterlimit:10"/><text transform="translate(835 413.5)" style="font-size:27px;fill:#fff;font-family:Roboto-Regular, Roboto">Chinese<tspan x="96.425" y="0" style="letter-spacing:0.18115234375em">	</tspan><tspan x="108" y="0" xml:space="preserve" style="letter-spacing:1.0857747395833333em">				</tspan><tspan x="252" y="0">Ross</tspan><tspan x="311.867" y="0" style="letter-spacing:0.20182291666666666em">	</tspan><tspan x="324" y="0" xml:space="preserve" style="letter-spacing:1.0857928240740742em">					</tspan><tspan x="504" y="0" style="letter-spacing:0.00003616898148148148em">4 d</tspan><tspan x="541.072" y="0" style="letter-spacing:-0.00734230324074074em">a</tspan><tspan x="555.561" y="0" style="letter-spacing:0.00003616898148148148em">ys ago</tspan><tspan x="634.174" y="0" style="letter-spacing:0.2645399305555556em">	</tspan><tspan x="648" y="0" xml:space="preserve" style="letter-spacing:1.0857928240740742em">			</tspan><tspan x="756" y="0" style="letter-spacing:-0.00003616898148148148em">$52.85</tspan></text><line x1="835" y1="379.5" x2="1672" y2="379.5" style="fill:none;stroke:#ccc;stroke-miterlimit:10"/><text transform="translate(835 462.5)" style="font-size:27px;fill:#fff;font-family:Roboto-Regular, Roboto">6x 1$ Pizza<tspan x="137.268" y="0" style="letter-spacing:0.001808449074074074em">	</tspan><tspan x="144" y="0" xml:space="preserve" style="letter-spacing:1.0857928240740742em">			</tspan><tspan x="252" y="0">Joe</tspan><tspan x="296.6" y="0" style="letter-spacing:0.7672887731481481em">	</tspan><tspan x="324" y="0" xml:space="preserve" style="letter-spacing:1.0857928240740742em">					</tspan><tspan x="504" y="0" style="letter-spacing:-0.00003616898148148148em">1 week ago</tspan><tspan x="640.346" y="0" style="letter-spacing:0.035951967592592594em">	</tspan><tspan x="648" y="0" xml:space="preserve" style="letter-spacing:1.0857928240740742em">			</tspan><tspan x="756" y="0" style="letter-spacing:0.00003616898148148148em">$6.00</tspan></text><line x1="835" y1="428.5" x2="1672" y2="428.5" style="fill:none;stroke:#ccc;stroke-miterlimit:10"/><text transform="translate(835 507.5)" style="font-size:27px;fill:#fff;font-family:Roboto-Regular, Roboto">Tic<tspan x="36.795" y="0" style="letter-spacing:-0.009765625em">k</tspan><tspan x="50.216" y="0">ets</tspan><tspan x="87.262" y="0" style="letter-spacing:0.5205078125em">	</tspan><tspan x="108" y="0" xml:space="preserve" style="letter-spacing:1.0857747395833333em">				</tspan><tspan x="252" y="0">Chandler</tspan><tspan x="359.249" y="0" style="letter-spacing:-0.2197265625em">	</tspan><tspan x="360" y="0" xml:space="preserve" style="letter-spacing:1.0857928240740742em">				</tspan><tspan x="504" y="0" style="letter-spacing:0.00003616898148148148em">2 weeks ago</tspan><tspan x="654.268" y="0" style="letter-spacing:0.8537326388888888em">	</tspan><tspan x="684.002" y="0" xml:space="preserve" style="letter-spacing:1.0857928240740742em">		</tspan><tspan x="756.002" y="0" style="letter-spacing:-0.00003616898148148148em">$99.45</tspan></text><line x1="835" y1="473.5" x2="1672" y2="473.5" style="fill:none;stroke:#ccc;stroke-miterlimit:10"/><path d="M795,1013s12-24,40-40,88-12,114-12,44-50,58-50h158c28,0,38-97,52-97s35,1,53,0,24-44,40-44,54,1,71,0,24-9,42-10,116-1,138,0,38-29,52-30,44,1,59,0,22-33,53-33h67v316Z" style="fill:#1976d2"/></svg>