<svg id="64e99a22-d333-4910-88c6-1583d953425f" data-name="Ebene 1" xmlns="http://www.w3.org/2000/svg" viewBox="0 0 1920 1080"><title>ShoppingLists</title><rect width="1920" height="1080" rx="12" ry="12"/><rect width="1920" height="127" rx="12" ry="12" style="fill:#1976d2"/><rect y="99" width="58" height="28" style="fill:#1976d2"/><rect x="1895" y="94" width="25" height="33" style="fill:#1976d2"/><line x1="45" y1="39" x2="106" y2="39" style="fill:none;stroke:#fff;stroke-miterlimit:10;stroke-width:8px"/><line x1="45" y1="63" x2="106" y2="63" style="fill:none;stroke:#fff;stroke-miterlimit:10;stroke-width:8px"/><line x1="45" y1="87" x2="106" y2="87" style="fill:none;stroke:#fff;stroke-miterlimit:10;stroke-width:8px"/><text transform="translate(135.129 90.115)" style="font-size:74px;fill:#fff;font-family:Roboto-Regular, Roboto">Roomie</text><rect x="58" y="183.51" width="870.5" height="835.49" rx="12" ry="12" style="fill:#1e1e1e;stroke:#000;stroke-miterlimit:10"/><rect x="983.5" y="182.5" width="872" height="836.5" rx="12" ry="12" style="fill:#1e1e1e;stroke:#000;stroke-miterlimit:10"/><text transform="translate(106 257)" style="font-size:57px;fill:#fff;font-family:Roboto-Light, Roboto">Shopping Lists</text><text transform="translate(1013 255)" style="font-size:57px;fill:#fff;font-family:Roboto-Light, Roboto">G<tspan x="38.965" y="0" style="letter-spacing:-0.009765625em">r</tspan><tspan x="57.584" y="0">oceries</tspan></text><line x1="117" y1="399" x2="840" y2="399" style="fill:none;stroke:#fff;stroke-miterlimit:10"/><text transform="translate(117.433 465.954)" style="font-size:56px;fill:#fff;font-family:Roboto-Regular, Roboto">Ha<tspan x="70.383" y="0" style="letter-spacing:-0.00927734375em">r</tspan><tspan x="88.813" y="0">dwa</tspan><tspan x="192.938" y="0" style="letter-spacing:-0.00927734375em">r</tspan><tspan x="211.367" y="0">e s</tspan><tspan x="283.773" y="0" style="letter-spacing:-0.009765625em">t</tspan><tspan x="301.52" y="0">o</tspan><tspan x="333.457" y="0" style="letter-spacing:-0.00927734375em">r</tspan><tspan x="351.887" y="0">e</tspan></text><path d="M804.961,463.953a5.407,5.407,0,0,0,5.391,5.391h21.562a5.407,5.407,0,0,0,5.391-5.391V431.609H804.961ZM840,423.523h-9.434l-2.7-2.7H814.4l-2.7,2.7h-9.433v5.391H840Z" style="fill:#fff"/><path d="M723,459.142v9.686h9.686l28.568-28.568-9.686-9.686Zm45.744-26.372a2.571,2.571,0,0,0,0-3.642l-6.044-6.044a2.571,2.571,0,0,0-3.642,0l-4.727,4.726,9.687,9.687Z" style="fill:#fff"/><line x1="117" y1="491" x2="840" y2="491" style="fill:none;stroke:#fff;stroke-miterlimit:10"/><text transform="translate(114.433 562.954)" style="font-size:56px;fill:#fff;font-family:Roboto-Regular, Roboto"><tspan style="letter-spacing:-0.00537109375em">P</tspan><tspan x="35.027" y="0">a</tspan><tspan x="65.488" y="0" style="letter-spacing:0.0244140625em">r</tspan><tspan x="85.805" y="0">ty stuff</tspan></text><path d="M801.961,560.953a5.407,5.407,0,0,0,5.391,5.391h21.562a5.407,5.407,0,0,0,5.391-5.391V528.609H801.961ZM837,520.523h-9.434l-2.7-2.7H811.4l-2.7,2.7h-9.433v5.391H837Z" style="fill:#fff"/><path d="M720,556.142v9.686h9.686l28.568-28.568-9.686-9.686Zm45.744-26.372a2.571,2.571,0,0,0,0-3.642l-6.044-6.044a2.571,2.571,0,0,0-3.642,0l-4.727,4.726,9.687,9.687Z" style="fill:#fff"/><line x1="114" y1="588" x2="837" y2="588" style="fill:none;stroke:#fff;stroke-miterlimit:10"/><g style="opacity:0.31"><rect x="113" y="318" width="735" height="70" rx="12" ry="12" style="fill:#1976d2"/></g><text transform="translate(114.433 659.954)" style="font-size:56px;fill:#fff;font-family:Roboto-Regular, Roboto">Drinks</text><path d="M801.961,657.953a5.407,5.407,0,0,0,5.391,5.391h21.562a5.407,5.407,0,0,0,5.391-5.391V625.609H801.961ZM837,617.523h-9.434l-2.7-2.7H811.4l-2.7,2.7h-9.433v5.391H837Z" style="fill:#fff"/><path d="M720,653.142v9.686h9.686l28.568-28.568-9.686-9.686Zm45.744-26.372a2.571,2.571,0,0,0,0-3.642l-6.044-6.044a2.571,2.571,0,0,0-3.642,0l-4.727,4.726,9.687,9.687Z" style="fill:#fff"/><text transform="translate(117.433 373.954)" style="font-size:56px;fill:#fff;font-family:Roboto-Regular, Roboto">G<tspan x="38.145" y="0" style="letter-spacing:-0.009765625em">r</tspan><tspan x="56.547" y="0">oceries</tspan><tspan x="238.547" y="0" style="letter-spacing:0.25880650111607145em">	</tspan></text><path d="M723,367.142v9.686h9.686l28.568-28.568-9.686-9.686Zm45.744-26.372a2.571,2.571,0,0,0,0-3.642l-6.044-6.044a2.571,2.571,0,0,0-3.642,0l-4.727,4.726,9.687,9.687Z" style="fill:#fff"/><path d="M804.961,371.953a5.407,5.407,0,0,0,5.391,5.391h21.562a5.407,5.407,0,0,0,5.391-5.391V339.609H804.961ZM840,331.523h-9.434l-2.7-2.7H814.4l-2.7,2.7h-9.433v5.391H840Z" style="fill:#fff"/><text transform="translate(1098.433 372.954)" style="font-size:56px;fill:#fff;font-family:Roboto-Regular, Roboto">Basil</text><rect x="1051" y="343" width="24" height="24" style="fill:#fff;stroke:#fff;stroke-miterlimit:10;stroke-width:2px"/><path d="M1781.1,370.667a3.687,3.687,0,0,0,3.676,3.677h14.7a3.688,3.688,0,0,0,3.677-3.677V348.609H1781.1ZM1805,343.1h-6.434l-1.838-1.838h-9.191L1785.7,343.1h-6.433v3.676H1805Z" style="fill:#fff"/><text transform="translate(1098.433 435.954)" style="font-size:56px;fill:#fff;font-family:Roboto-Regular, Roboto">Blue cheese</text><rect x="1051" y="406" width="24" height="24" style="fill:none;stroke:#fff;stroke-miterlimit:10;stroke-width:2px"/><path d="M1781.1,433.667a3.687,3.687,0,0,0,3.676,3.677h14.7a3.688,3.688,0,0,0,3.677-3.677V411.609H1781.1ZM1805,406.1h-6.434l-1.838-1.838h-9.191L1785.7,406.1h-6.433v3.676H1805Z" style="fill:#fff"/><text transform="translate(1097.433 494.954)" style="font-size:56px;fill:#fff;font-family:Roboto-Regular, Roboto"><tspan style="letter-spacing:-0.00927734375em">E</tspan><tspan x="31.309" y="0">ggs</tspan></text><rect x="1050" y="465" width="24" height="24" style="fill:#fff;stroke:#fff;stroke-miterlimit:10;stroke-width:2px"/><path d="M1780.1,492.667a3.687,3.687,0,0,0,3.676,3.677h14.7a3.688,3.688,0,0,0,3.677-3.677V470.609H1780.1ZM1804,465.1h-6.434l-1.838-1.838h-9.191L1784.7,465.1h-6.433v3.676H1804Z" style="fill:#fff"/><text transform="translate(1098.433 554.954)" style="font-size:56px;fill:#fff;font-family:Roboto-Regular, Roboto"><tspan style="letter-spacing:-0.04833984375em">T</tspan><tspan x="30.707" y="0">oma</tspan><tspan x="142.188" y="0" style="letter-spacing:-0.009765625em">t</tspan><tspan x="159.934" y="0">o sauce</tspan></text><rect x="1051" y="525" width="24" height="24" style="fill:none;stroke:#fff;stroke-miterlimit:10;stroke-width:2px"/><path d="M1781.1,552.667a3.687,3.687,0,0,0,3.676,3.677h14.7a3.688,3.688,0,0,0,3.677-3.677V530.609H1781.1ZM1805,525.1h-6.434l-1.838-1.838h-9.191L1785.7,525.1h-6.433v3.676H1805Z" style="fill:#fff"/><text transform="translate(1098.433 615.954)" style="font-size:56px;fill:#fff;font-family:Roboto-Regular, Roboto">Salami</text><rect x="1051" y="586" width="24" height="24" style="fill:none;stroke:#fff;stroke-miterlimit:10;stroke-width:2px"/><path d="M1781.1,613.667a3.687,3.687,0,0,0,3.676,3.677h14.7a3.688,3.688,0,0,0,3.677-3.677V591.609H1781.1ZM1805,586.1h-6.434l-1.838-1.838h-9.191L1785.7,586.1h-6.433v3.676H1805Z" style="fill:#fff"/><text transform="translate(1098.433 674.954)" style="font-size:56px;fill:#fff;font-family:Roboto-Regular, Roboto">Ham</text><rect x="1051" y="645" width="24" height="24" style="fill:#fff;stroke:#fff;stroke-miterlimit:10;stroke-width:2px"/><path d="M1781.1,672.667a3.687,3.687,0,0,0,3.676,3.677h14.7a3.688,3.688,0,0,0,3.677-3.677V650.609H1781.1ZM1805,645.1h-6.434l-1.838-1.838h-9.191L1785.7,645.1h-6.433v3.676H1805Z" style="fill:#fff"/><text transform="translate(1097.433 733.954)" style="font-size:56px;fill:#fff;font-family:Roboto-Regular, Roboto">Flour</text><rect x="1050" y="704" width="24" height="24" style="fill:#fff;stroke:#fff;stroke-miterlimit:10;stroke-width:2px"/><path d="M1780.1,731.667a3.687,3.687,0,0,0,3.676,3.677h14.7a3.688,3.688,0,0,0,3.677-3.677V709.609H1780.1ZM1804,704.1h-6.434l-1.838-1.838h-9.191L1784.7,704.1h-6.433v3.676H1804Z" style="fill:#fff"/><text transform="translate(1097.433 794.954)" style="font-size:56px;fill:#fff;font-family:Roboto-Regular, Roboto">Milk</text><rect x="1050" y="765" width="24" height="24" style="fill:#fff;stroke:#fff;stroke-miterlimit:10;stroke-width:2px"/><path d="M1780.1,792.667a3.687,3.687,0,0,0,3.676,3.677h14.7a3.688,3.688,0,0,0,3.677-3.677V770.609H1780.1ZM1804,765.1h-6.434l-1.838-1.838h-9.191L1784.7,765.1h-6.433v3.676H1804Z" style="fill:#fff"/><text transform="translate(1095.433 855.954)" style="font-size:56px;fill:#fff;font-family:Roboto-Regular, Roboto">Sugar</text><rect x="1048" y="826" width="24" height="24" style="fill:none;stroke:#fff;stroke-miterlimit:10;stroke-width:2px"/><path d="M1778.1,853.667a3.687,3.687,0,0,0,3.676,3.677h14.7a3.688,3.688,0,0,0,3.677-3.677V831.609H1778.1ZM1802,826.1h-6.434l-1.838-1.838h-9.191L1782.7,826.1h-6.433v3.676H1802Z" style="fill:#fff"/><circle cx="1762" cy="250" r="43" style="fill:none;stroke:#fff;stroke-miterlimit:10;stroke-width:10px"/><rect x="1761.5" y="243.5" width="66" height="66" style="fill:#1e1e1e"/></svg>