<svg id="dff4d1f5-e429-4361-b9a8-2c7c535d5d48" data-name="Ebene 1" xmlns="http://www.w3.org/2000/svg" viewBox="0 0 1920 1080"><title>Tasks</title><rect width="1920" height="1080" rx="12" ry="12"/><rect width="1920" height="127" rx="12" ry="12" style="fill:#1976d2"/><rect y="99" width="58" height="28" style="fill:#1976d2"/><rect x="1895" y="94" width="25" height="33" style="fill:#1976d2"/><line x1="45" y1="39" x2="106" y2="39" style="fill:none;stroke:#fff;stroke-miterlimit:10;stroke-width:8px"/><line x1="45" y1="63" x2="106" y2="63" style="fill:none;stroke:#fff;stroke-miterlimit:10;stroke-width:8px"/><line x1="45" y1="87" x2="106" y2="87" style="fill:none;stroke:#fff;stroke-miterlimit:10;stroke-width:8px"/><text transform="translate(135.129 90.115)" style="font-size:74px;fill:#fff;font-family:Roboto-Regular, Roboto">Jeff</text><rect x="58" y="183.51" width="577.5" height="542.99" rx="12" ry="12" style="fill:#1e1e1e;stroke:#000;stroke-miterlimit:10"/><rect x="686.5" y="182.5" width="1169" height="544" rx="12" ry="12" style="fill:#1e1e1e;stroke:#000;stroke-miterlimit:10"/><text transform="translate(162 263)" style="font-size:57px;fill:#fff;font-family:Roboto-Light, Roboto"><tspan style="letter-spacing:-0.04833984375em">T</tspan><tspan x="31.283" y="0">od</tspan><tspan x="94.879" y="0" style="letter-spacing:-0.00732421875em">a</tspan><tspan x="124.994" y="0" style="letter-spacing:0.00732421875em">y</tspan><tspan x="152.492" y="0" style="letter-spacing:-0.0390625em">‘</tspan><tspan x="160.396" y="0">s</tspan><tspan x="189.258" y="0" style="letter-spacing:-0.01953125em"> </tspan><tspan x="202.005" y="0" style="letter-spacing:-0.05517578125em">T</tspan><tspan x="232.898" y="0">asks</tspan></text><text transform="translate(1013 255)" style="font-size:57px;fill:#fff;font-family:Roboto-Light, Roboto">Upcoming<tspan x="256.556" y="0" style="letter-spacing:-0.01953125em"> </tspan><tspan x="269.303" y="0" style="letter-spacing:-0.05517578125em">T</tspan><tspan x="300.196" y="0">asks</tspan></text><rect x="686.5" y="747.5" width="1169" height="299" rx="12" ry="12" style="fill:#1e1e1e;stroke:#000;stroke-miterlimit:10"/><text transform="translate(795.433 352.954)" style="font-size:56px;fill:#fff;font-family:Roboto-Regular, Roboto">G<tspan x="38.145" y="0" style="letter-spacing:-0.009765625em">r</tspan><tspan x="56.547" y="0">oce</tspan><tspan x="147.465" y="0" style="letter-spacing:0.0087890625em">r</tspan><tspan x="166.906" y="0">y Shopping</tspan></text><rect x="1693" y="342" width="31" height="31" style="fill:none;stroke:#fff;stroke-miterlimit:10;stroke-width:2px"/><path d="M1793.1,369.667a3.687,3.687,0,0,0,3.676,3.677h14.7a3.688,3.688,0,0,0,3.677-3.677V347.609H1793.1ZM1817,342.1h-6.434l-1.838-1.838h-9.191L1797.7,342.1h-6.433v3.676H1817Z" style="fill:#fff"/><rect x="57.105" y="747.493" width="577.5" height="299.007" rx="12" ry="12" style="fill:#1e1e1e;stroke:#000;stroke-miterlimit:10"/><path d="M1743,366.918V374h7.082l20.889-20.888-7.083-7.083Zm33.448-19.283a1.882,1.882,0,0,0,0-2.663l-4.42-4.42a1.882,1.882,0,0,0-2.663,0l-3.456,3.457,7.082,7.082Z" style="fill:#fff"/><rect x="792" y="372" width="152" height="37" rx="12" ry="12" style="fill:#848484"/><path d="M735.888,374.7a5.588,5.588,0,1,0,5.587,5.588A5.58,5.58,0,0,0,735.888,374.7ZM719.125,330v5.587h5.587l10.058,21.2L731,363.637a5.4,5.4,0,0,0-.7,2.682,5.6,5.6,0,0,0,5.588,5.587h33.524v-5.587H737.061a.693.693,0,0,1-.7-.7l.084-.335,2.515-4.554h20.813a5.561,5.561,0,0,0,4.889-2.877l10-18.132a2.734,2.734,0,0,0,.335-1.341,2.8,2.8,0,0,0-2.794-2.793H730.887L728.261,330Zm44.7,44.7a5.588,5.588,0,1,0,5.587,5.588A5.58,5.58,0,0,0,763.825,374.7Z" style="fill:#fff"/><text transform="translate(1385 371)" style="font-size:33px;fill:#fff;font-family:Roboto-Regular, Roboto">-<tspan x="9.104" y="0" style="letter-spacing:-0.01953125em"> </tspan><tspan x="16.629" y="0" style="letter-spacing:-0.04832504734848485em">T</tspan><tspan x="34.725" y="0">omor</tspan><tspan x="112.455" y="0" style="letter-spacing:-0.009765625em">r</tspan><tspan x="123.299" y="0">o</tspan><tspan x="142.119" y="0" style="letter-spacing:-0.060546875em">w</tspan><tspan x="164.92" y="0" style="letter-spacing:-0.00002959280303030303em">, 5:00pm</tspan></text><text transform="translate(802 402)" style="font-size:33px;fill:#fff;font-family:Roboto-Regular, Roboto">Chandler</text><text transform="translate(795.433 478.954)" style="font-size:56px;fill:#fff;font-family:Roboto-Regular, Roboto">Repair Chair</text><rect x="1693" y="468" width="31" height="31" style="fill:none;stroke:#fff;stroke-miterlimit:10;stroke-width:2px"/><path d="M1793.1,495.667a3.687,3.687,0,0,0,3.676,3.677h14.7a3.688,3.688,0,0,0,3.677-3.677V473.609H1793.1ZM1817,468.1h-6.434l-1.838-1.838h-9.191L1797.7,468.1h-6.433v3.676H1817Z" style="fill:#fff"/><path d="M1743,492.918V500h7.082l20.889-20.888-7.083-7.083Zm33.448-19.283a1.882,1.882,0,0,0,0-2.663l-4.42-4.42a1.882,1.882,0,0,0-2.663,0l-3.456,3.457,7.082,7.082Z" style="fill:#fff"/><rect x="792" y="498" width="91" height="37" rx="12" ry="12" style="fill:#848484"/><text transform="translate(1385 497)" style="font-size:33px;fill:#fff;font-family:Roboto-Regular, Roboto">-<tspan x="9.104" y="0" style="letter-spacing:-0.01953125em"> </tspan><tspan x="16.629" y="0" style="letter-spacing:-0.04832504734848485em">T</tspan><tspan x="34.725" y="0">omor</tspan><tspan x="112.455" y="0" style="letter-spacing:-0.009765625em">r</tspan><tspan x="123.299" y="0">o</tspan><tspan x="142.119" y="0" style="letter-spacing:-0.060546875em">w</tspan><tspan x="164.92" y="0" style="letter-spacing:-0.00002959280303030303em">, 8:00pm</tspan></text><text transform="translate(802 526)" style="font-size:33px;fill:#fff;font-family:Roboto-Regular, Roboto">Jo<tspan x="37.028" y="0" style="letter-spacing:-0.006362452651515152em">e</tspan><tspan x="54.302" y="0" style="letter-spacing:0.00002959280303030303em">y</tspan></text><text transform="translate(795.433 603.954)" style="font-size:56px;fill:#fff;font-family:Roboto-Regular, Roboto">Buy<tspan x="92.23" y="0" style="letter-spacing:-0.01953125em"> </tspan><tspan x="105" y="0">Tic</tspan><tspan x="181.316" y="0" style="letter-spacing:-0.009765625em">k</tspan><tspan x="209.152" y="0">ets </tspan><tspan x="299.852" y="0" style="letter-spacing:-0.009765625em">t</tspan><tspan x="317.598" y="0">o London</tspan></text><rect x="1693" y="593" width="31" height="31" style="fill:none;stroke:#fff;stroke-miterlimit:10;stroke-width:2px"/><path d="M1793.1,620.667a3.687,3.687,0,0,0,3.676,3.677h14.7a3.688,3.688,0,0,0,3.677-3.677V598.609H1793.1ZM1817,593.1h-6.434l-1.838-1.838h-9.191L1797.7,593.1h-6.433v3.676H1817Z" style="fill:#fff"/><path d="M1743,617.918V625h7.082l20.889-20.888-7.083-7.083Zm33.448-19.283a1.882,1.882,0,0,0,0-2.663l-4.42-4.42a1.882,1.882,0,0,0-2.663,0l-3.456,3.457,7.082,7.082Z" style="fill:#fff"/><rect x="91" y="310" width="510" height="373" rx="12" ry="12" style="fill:#636363"/><rect x="792" y="623" width="122" height="37" rx="12" ry="12" style="fill:#848484"/><text transform="translate(1385 622)" style="font-size:33px;fill:#fff;font-family:Roboto-Regular, Roboto">- in 2 d<tspan x="96.97" y="0" style="letter-spacing:-0.007339015151515152em">a</tspan><tspan x="114.678" y="0">ys, 8:00am</tspan></text><text transform="translate(802 653)" style="font-size:33px;fill:#fff;font-family:Roboto-Regular, Roboto">Rachel</text><text transform="translate(126.433 534.954)" style="font-size:56px;fill:#fff;font-family:Roboto-Regular, Roboto"><tspan style="letter-spacing:-0.0224609375em">V</tspan><tspan x="34.371" y="0">acuum cleaning</tspan></text><rect x="271" y="617" width="131" height="37" rx="12" ry="12" style="fill:#848484"/><text transform="translate(281 647)" style="font-size:33px;fill:#fff;font-family:Roboto-Regular, Roboto">Monica</text><text transform="translate(206 587)" style="font-size:33px;fill:#fff;font-family:Roboto-Regular, Roboto">-<tspan x="9.104" y="0" style="letter-spacing:-0.01953125em"> </tspan><tspan x="16.629" y="0" style="letter-spacing:-0.04832504734848485em">T</tspan><tspan x="34.725" y="0">od</tspan><tspan x="72.155" y="0" style="letter-spacing:-0.007339015151515152em">a</tspan><tspan x="89.863" y="0" style="letter-spacing:-0.05223129734848485em">y</tspan><tspan x="103.754" y="0" style="letter-spacing:-0.00002959280303030303em">, 11:00am -</tspan></text><path d="M783.148,497.844l-26.864-26.865a18.944,18.944,0,0,0-4.429-20.369,19.512,19.512,0,0,0-21.845-3.838L742.7,459.466l-8.857,8.856-12.989-12.694A19.3,19.3,0,0,0,745.066,481.9l26.864,26.865a2.854,2.854,0,0,0,4.133,0l6.79-6.79A2.659,2.659,0,0,0,783.148,497.844Z" style="fill:#fff"/><path d="M391.539,366.021v79.146A21.9,21.9,0,0,1,369.706,467H329.86a21.8,21.8,0,0,1-15.556-6.5l-42.848-43.558s6.877-6.714,7.095-6.823a6.47,6.47,0,0,1,4.313-1.583,6.672,6.672,0,0,1,3.275.874c.218.054,23.525,13.427,23.525,13.427V357.833a8.188,8.188,0,0,1,16.375,0v38.209H331.5V344.188a8.188,8.188,0,1,1,16.375,0v51.854h5.459v-46.4a8.188,8.188,0,1,1,16.375,0v46.4h5.458V366.021a8.188,8.188,0,1,1,16.375,0Z" style="fill:#fff"/><path d="M723.929,628.155h55.524V634H723.929Zm57.19-27.353a4.375,4.375,0,0,0-5.378-3.1l-15.517,4.149-20.164-18.79-5.64,1.49,12.1,20.953-14.524,3.887-5.757-4.5L722,606.033l7.569,13.122s20.807-5.553,48.423-12.946A4.449,4.449,0,0,0,781.119,600.8Z" style="fill:#fff"/><rect x="493" y="556" width="31" height="31" style="fill:none;stroke:#fff;stroke-miterlimit:10;stroke-width:2px"/><text transform="translate(91 825)" style="font-size:47px;fill:#fff;font-family:Roboto-Light, Roboto">Manage <tspan x="178.614" y="0" style="letter-spacing:-0.00927734375em">r</tspan><tspan x="193.99" y="0">epeating tasks</tspan></text><text transform="translate(166.433 906.954)" style="font-size:42px;fill:#fff;font-family:Roboto-Regular, Roboto">G<tspan x="28.608" y="0" style="letter-spacing:-0.009765625em">r</tspan><tspan x="42.41" y="0">oce</tspan><tspan x="110.599" y="0" style="letter-spacing:0.0087890625em">r</tspan><tspan x="125.18" y="0">y Shopping</tspan></text><path d="M551,924.418V934h9.582l28.261-28.261-9.582-9.582Zm45.253-26.089a2.545,2.545,0,0,0,0-3.6l-5.98-5.98a2.545,2.545,0,0,0-3.6,0L582,893.423l9.582,9.582Z" style="fill:#fff"/><path d="M107.888,927.7a5.588,5.588,0,1,0,5.587,5.588A5.58,5.58,0,0,0,107.888,927.7ZM91.125,883v5.587h5.587l10.058,21.205L103,916.637a5.4,5.4,0,0,0-.7,2.682,5.6,5.6,0,0,0,5.588,5.587h33.524v-5.587H109.061a.693.693,0,0,1-.7-.7l.084-.335,2.515-4.554h20.813a5.561,5.561,0,0,0,4.889-2.877l10-18.132a2.734,2.734,0,0,0,.335-1.341,2.8,2.8,0,0,0-2.794-2.793H102.887L100.261,883Zm44.7,44.7a5.588,5.588,0,1,0,5.587,5.588A5.58,5.58,0,0,0,135.825,927.7Z" style="fill:#fff"/><text transform="translate(173 940)" style="font-size:33px;fill:#fff;font-family:Roboto-Regular, Roboto">-<tspan x="9.104" y="0" style="letter-spacing:-0.01953125em"> </tspan><tspan x="16.629" y="0" style="letter-spacing:-0.04832504734848485em">T</tspan><tspan x="34.725" y="0">omor</tspan><tspan x="112.455" y="0" style="letter-spacing:-0.009765625em">r</tspan><tspan x="123.299" y="0">o</tspan><tspan x="142.119" y="0" style="letter-spacing:-0.060546875em">w</tspan><tspan x="164.92" y="0" style="letter-spacing:-0.00002959280303030303em">, 5:00pm</tspan></text><text transform="translate(711 825)" style="font-size:47px;fill:#fff;font-family:Roboto-Light, Roboto"><tspan style="letter-spacing:-0.05517578125em">T</tspan><tspan x="25.474" y="0">ask Log</tspan></text><line x1="1271" y1="853" x2="1271" y2="1031" style="fill:none;stroke:#fff;stroke-miterlimit:10;stroke-width:3px"/><circle cx="1271.75" cy="885.75" r="21.25" style="fill:#1976d2"/><text transform="translate(1015 891)" style="font-size:25px;fill:#fff;font-family:Roboto-Regular, Roboto"><tspan style="letter-spacing:-0.006328125em">y</tspan><tspan x="11.67" y="0">este</tspan><tspan x="59.217" y="0" style="letter-spacing:-0.009296875em">r</tspan><tspan x="67.443" y="0">d</tspan><tspan x="81.543" y="0" style="letter-spacing:-0.0073046875em">a</tspan><tspan x="94.959" y="0" style="letter-spacing:-0.0523046875em">y</tspan><tspan x="105.48" y="0" style="letter-spacing:0.0000390625em">, 11:24pm</tspan></text><text transform="translate(1307 977)" style="font-size:25px;fill:#fff;font-family:Roboto-Regular, Roboto">2 d<tspan x="34.326" y="0" style="letter-spacing:-0.0073046875em">a</tspan><tspan x="47.742" y="0" style="letter-spacing:-0.0000390625em">ys ago, 06:24pm</tspan></text><text transform="translate(1313.433 879.954)" style="font-size:42px;fill:#fff;font-family:Roboto-Regular, Roboto">G<tspan x="28.608" y="0" style="letter-spacing:-0.009765625em">r</tspan><tspan x="42.41" y="0">oce</tspan><tspan x="110.599" y="0" style="letter-spacing:0.0087890625em">r</tspan><tspan x="125.18" y="0">y Shopping</tspan></text><rect x="1312" y="886" width="122" height="37" rx="12" ry="12" style="fill:#848484"/><text transform="translate(1322 916)" style="font-size:33px;fill:#fff;font-family:Roboto-Regular, Roboto">Rachel</text><text transform="translate(976.433 963.954)" style="font-size:42px;fill:#fff;font-family:Roboto-Regular, Roboto">Buy costumes</text><rect x="975" y="975" width="122" height="37" rx="12" ry="12" style="fill:#848484"/><text transform="translate(985 1005)" style="font-size:33px;fill:#fff;font-family:Roboto-Regular, Roboto">Ross</text><circle cx="1270.75" cy="974.75" r="21.25" style="fill:#1976d2"/></svg>