<svg id="Ebene_2" data-name="Ebene 2" xmlns="http://www.w3.org/2000/svg" viewBox="0 0 702.94 744.01"><defs><style>.cls-1{fill:#15499e;}.cls-2{fill:#263238;}.cls-3{fill:#ef4538;}.cls-4{fill:#e5a673;}.cls-5{fill:#fff;}.cls-6{fill:#ecb989;}.cls-7{fill:#efb484;}.cls-8{fill:#3f2926;}.cls-9{fill:#5b4636;}.cls-10{fill:#c49a74;}.cls-11{fill:#473728;}.cls-12{fill:#f0536f;}.cls-13{fill:#604a37;}</style></defs><title>Logo_Jeff</title><path class="cls-1" d="M754.67,438.63a351.44,351.44,0,0,1-324.1,350.42Q417,790.1,403.2,790.1h-1q-13.93,0-27.59-1.14A351.41,351.41,0,0,1,51.73,438.63c0-132.64,73.48-248.12,182-307.95q10.4-5.75,21.21-10.79,10.19-4.74,20.73-8.85a347.81,347.81,0,0,1,35.25-11.63q4.77-1.29,9.58-2.45a352.09,352.09,0,0,1,82.75-9.8l3.44,0q4.71,0,9.39.21a0,0,0,0,0,0,0A349.59,349.59,0,0,1,575,132h0q14.41,8.08,28,17.47h0C694.65,212.88,754.67,318.75,754.67,438.63Z" transform="translate(-51.73 -46.09)"/><path class="cls-2" d="M688.49,644a351.13,351.13,0,0,1-257.92,145.1Q417,790.1,403.2,790.1h-1v-143l.39-.4L413,636l.39-.39,63.51-65.42,25-25.71,1.6-1.65.24.11.37.16L556,566.5l123.75,55.73Z" transform="translate(-51.73 -46.09)"/><path class="cls-2" d="M402.2,647.13v143q-13.93,0-27.59-1.14a351.12,351.12,0,0,1-258-146.79l8-19.93,124.33-56,52-23.4.16.16,24.12,24.85h0L391.34,636l.4.41Z" transform="translate(-51.73 -46.09)"/><path class="cls-3" d="M443.72,661.62l-23,22.82,9.83,104.61Q417,790.1,403.2,790.1h-1q-13.93,0-27.59-1.14l9.82-104.51-23-22.82-1.56-1.55L391.34,636l11.25-8.63,10.8,8.29,31.89,24.46Z" transform="translate(-51.73 -46.09)"/><polygon class="cls-4" points="452.35 442.67 452.35 503.21 350.86 581.23 249.36 503.21 249.36 442.67 452.35 442.67"/><polygon id="KragenRechts" class="cls-5" points="470.26 481.6 506.05 517.88 421.21 639.89 350.86 581.23 470.26 481.6"/><polygon id="KragenLinks" class="cls-5" points="231.45 481.6 195.66 517.88 280.5 639.89 350.86 581.23 231.45 481.6"/><path class="cls-6" d="M238.91,308.9s-24.48,4.47-20.31,34.56,12.06,48.85,33.51,61.81Z" transform="translate(-51.73 -46.09)"/><path class="cls-6" d="M564.61,308.9s24.48,4.47,20.31,34.56-12.07,48.85-33.51,61.81Z" transform="translate(-51.73 -46.09)"/><ellipse class="cls-7" cx="349.96" cy="279.08" rx="162.92" ry="232.87"/><path class="cls-8" d="M240.56,359.83s-2.08-26.67-20.22-46.6-9-92.9-9-92.9,13.75-90.51,43.06-132.77c0,0-1.2,42.46,4,55,0,0,24.72-58.81,69.57-85.33,0,0-16.75,25.12-18.74,54,0,0,39.87-65,126.39-65.19,0,0-21.53,17.94-30.5,45.25,0,0,87.88-37.48,159.47,5.39,0,0-36.27,7.57-52.61,26.71,0,0,65.58-5.58,94.89,30.3,0,0-37.68,9.57-29.9,42.27.44,1.87,1.57,3.77,2.23,5.59A149.72,149.72,0,0,1,584,217.54a189.09,189.09,0,0,1,4.84,56.6A162.92,162.92,0,0,1,580,316.32c-2.31,6.77-6.15,12.94-8.94,19.54a174.64,174.64,0,0,0-8.39,25.35c0-1.53-.08-3.06-.18-4.59a92.24,92.24,0,0,0-6-26.09c-2-5.51-4.63-10.53-6-16.3a73,73,0,0,1-2-16.91c0-6.3.78-12.57,1.33-18.83a87.47,87.47,0,0,0-.3-15.43,72.57,72.57,0,0,0-9.86-30.3,38.83,38.83,0,0,0-8.27-10.18,91.83,91.83,0,0,0-7.83-5.92,140.62,140.62,0,0,0-22.69-12.25c-7-3-14.11-5.67-21.35-8,0,0-59-23.32-141.54-1.79-17.75,4.63-35.75,11.1-50.63,22.11-8.24,6.11-15.61,13.88-19.64,23.44a57.06,57.06,0,0,0-4.53,27.7c.68,7.61,2.26,15.16,2.28,22.81.05,19.54-9.78,38.16-18.74,54.95A77.1,77.1,0,0,0,240.56,359.83Z" transform="translate(-51.73 -46.09)"/><circle class="cls-9" cx="280.11" cy="275.39" r="19.8"/><path class="cls-10" d="M364.48,383.28h77.44s1.81,24.3-38.72,24.3S364.48,383.28,364.48,383.28Z" transform="translate(-51.73 -46.09)"/><path class="cls-11" d="M461.14,458.24c-10.42,21.85-22.13,41.67-58.55,42.07-36.43-.4-48.14-20.22-58.55-42.07s4.69-19.61,4.69-19.61H456.44S471.55,436.38,461.14,458.24Z" transform="translate(-51.73 -46.09)"/><path class="cls-5" d="M428.46,451.91H377.33c-18.38-.21-17.77-13.28-17.77-13.28h86.67S446.84,451.7,428.46,451.91Z" transform="translate(-51.73 -46.09)"/><path class="cls-12" d="M443.45,485.61s-12,14.7-40.25,14.7h-1.51c-28.1-.06-40.08-14.7-40.08-14.7,24.12-20.47,39.81-1.48,40.92-.08C403.64,484.13,419.33,465.14,443.45,485.61Z" transform="translate(-51.73 -46.09)"/><circle class="cls-13" cx="421.41" cy="275.39" r="19.8"/><path class="cls-13" d="M446.24,290.73a.75.75,0,0,0,0,.15.8.8,0,0,1,0,.15c.43,1.49,4.26,2.53,8.76,2.33a20.77,20.77,0,0,0,4.44-.64c2.29-3,9.31-5.23,17.62-5.23,6.77,0,12.7,1.46,15.89,3.65a21.63,21.63,0,0,0,5,.33c4.51-.21,8-1.56,8.06-3.08v-.15a1,1,0,0,1,0-.15c-.92-5.52-14.8-9.4-31.18-8.68S445.74,285.18,446.24,290.73Z" transform="translate(-51.73 -46.09)"/><path class="cls-13" d="M359.54,290.73a.38.38,0,0,1,0,.15.8.8,0,0,1,0,.15c-.43,1.49-4.25,2.53-8.76,2.33a20.86,20.86,0,0,1-4.44-.64c-2.29-3-9.3-5.23-17.62-5.23-6.77,0-12.69,1.46-15.89,3.65a21.63,21.63,0,0,1-5,.33c-4.5-.21-8-1.56-8.05-3.08v-.15a.66.66,0,0,1,0-.15c.92-5.52,14.79-9.4,31.17-8.68S360,285.18,359.54,290.73Z" transform="translate(-51.73 -46.09)"/></svg>